<svg width="12.517578" height="12.000000" viewBox="0 0 12.5176 12" fill="none" xmlns="http://www.w3.org/2000/svg" xmlns:xlink="http://www.w3.org/1999/xlink">
	<desc>
			Created with Pixso.
	</desc>
	<defs/>
	<path id="Shape" d="M6.25 1.5C6.11 1.5 5.96 1.55 5.86 1.67L2.21 5.67C2.02 5.87 2.04 6.19 2.26 6.37C2.48 6.55 2.81 6.53 3 6.32L5.73 3.32L5.73 10C5.73 10.27 5.97 10.5 6.25 10.5C6.54 10.5 6.78 10.27 6.78 10L6.78 3.33L9.51 6.33C9.7 6.53 10.03 6.55 10.25 6.37C10.47 6.19 10.49 5.87 10.3 5.66L6.69 1.71C6.59 1.58 6.43 1.5 6.25 1.5L6.25 1.5Z" fill="#3DD598" fill-opacity="1.000000" fill-rule="nonzero"/>
</svg>
