<svg width="19.080078" height="19.080078" viewBox="0 0 19.0801 19.0801" fill="none" xmlns="http://www.w3.org/2000/svg" xmlns:xlink="http://www.w3.org/1999/xlink">
	<desc>
			Created with Pixso.
	</desc>
	<defs/>
	<path id="Path_33955" d="M6.88 17.49C4.44 17.49 2.58 16.6 3.1 13.06L3.72 8.26C4.05 6.49 5.18 5.81 6.17 5.81L14.26 5.81C15.26 5.81 16.33 6.54 16.71 8.26L17.33 13.06C17.78 16.2 15.96 17.49 13.52 17.49L6.88 17.49Z" stroke="#FFFFFF" stroke-opacity="1.000000" stroke-width="1.192499" stroke-linejoin="round"/>
	<g style="mix-blend-mode:normal">
		<path id="Path_33956" d="M13.63 5.64C13.63 3.74 12.09 2.2 10.19 2.2C9.28 2.2 8.4 2.56 7.75 3.2C7.11 3.85 6.74 4.73 6.74 5.64L6.74 5.64" stroke="#FFFFFF" stroke-opacity="1.000000" stroke-width="1.192499" stroke-linejoin="round" stroke-linecap="round"/>
	</g>
	<path id="Line_192" d="M12.55 9.22L12.52 9.22" stroke="#FFFFFF" stroke-opacity="1.000000" stroke-width="1.192499" stroke-linejoin="round" stroke-linecap="round"/>
	<path id="Line_193" d="M7.91 9.22L7.88 9.22" stroke="#FFFFFF" stroke-opacity="1.000000" stroke-width="1.192499" stroke-linejoin="round" stroke-linecap="round"/>
</svg>
