<svg width="13.679688" height="13.679688" viewBox="0 0 13.6797 13.6797" fill="none" xmlns="http://www.w3.org/2000/svg" xmlns:xlink="http://www.w3.org/1999/xlink">
	<desc>
			Created with Pixso.
	</desc>
	<defs/>
	<path id="Shape" d="M11.81 2.78C12.76 3.93 13.33 5.4 13.33 7.01C13.33 10.69 10.34 13.67 6.66 13.67C2.98 13.67 0 10.69 0 7.01C0 3.33 2.98 0.34 6.66 0.34C8.26 0.34 9.72 0.9 10.87 1.83L11.24 1.47L11.41 0.54C11.48 0.18 11.83 -0.06 12.19 0.01C12.55 0.08 12.79 0.42 12.72 0.78L12.68 0.99L12.89 0.95C13.25 0.88 13.59 1.12 13.66 1.48C13.73 1.84 13.49 2.19 13.13 2.26L12.14 2.44L11.81 2.78ZM9.92 2.78C9.02 2.09 7.89 1.67 6.66 1.67C3.72 1.67 1.33 4.06 1.33 7.01C1.33 9.95 3.72 12.34 6.66 12.34C9.61 12.34 12 9.95 12 7.01C12 5.77 11.57 4.63 10.86 3.73L9.91 4.68C10.38 5.33 10.66 6.14 10.66 7.01C10.66 9.22 8.87 11.01 6.66 11.01C4.45 11.01 2.66 9.22 2.66 7.01C2.66 4.8 4.45 3.01 6.66 3.01C7.52 3.01 8.32 3.28 8.97 3.74L9.92 2.78ZM8 4.7C7.61 4.47 7.15 4.34 6.66 4.34C5.19 4.34 4 5.54 4 7.01C4 8.48 5.19 9.67 6.66 9.67C8.13 9.67 9.33 8.48 9.33 7.01C9.33 6.51 9.19 6.04 8.95 5.64L7.94 6.65C7.98 6.76 8 6.88 8 7.01C8 7.75 7.4 8.34 6.66 8.34C5.92 8.34 5.33 7.75 5.33 7.01C5.33 6.27 5.92 5.67 6.66 5.67C6.77 5.67 6.88 5.69 6.99 5.72L8 4.7Z" fill="#0056FE" fill-opacity="1.000000" fill-rule="evenodd"/>
</svg>
