<svg width="19.080078" height="19.080078" viewBox="0 0 19.0801 19.0801" fill="none" xmlns="http://www.w3.org/2000/svg" xmlns:xlink="http://www.w3.org/1999/xlink">
	<desc>
			Created with Pixso.
	</desc>
	<defs>
		<clipPath id="clip745_4345">
			<rect id="Users" rx="-0.397500" width="18.284988" height="18.284988" transform="translate(0.397500 0.397500)" fill="white" fill-opacity="0"/>
		</clipPath>
	</defs>
	<g clip-path="url(#clip745_4345)">
		<path id="Combined-Shape" d="M9.45 11.45L9.54 11.45L9.74 11.45C11.27 11.46 14.78 11.62 14.78 14C14.78 16.36 11.39 16.51 9.76 16.52L9.16 16.52C7.62 16.51 4.11 16.36 4.11 13.98C4.11 11.62 7.62 11.46 9.16 11.45L9.36 11.45C9.39 11.45 9.42 11.45 9.45 11.45ZM9.45 12.65C7.56 12.65 5.31 12.88 5.31 13.98C5.31 15.06 7.42 15.32 9.27 15.33L9.45 15.33C11.33 15.33 13.59 15.1 13.59 14C13.59 12.88 11.33 12.65 9.45 12.65ZM15.77 11.13C17.7 11.42 18.1 12.33 18.1 13.03C18.1 13.47 17.93 14.25 16.79 14.69C16.72 14.71 16.65 14.73 16.58 14.73C16.34 14.73 16.11 14.58 16.02 14.34C15.91 14.04 16.06 13.69 16.37 13.57C16.91 13.37 16.91 13.14 16.91 13.03C16.91 12.68 16.47 12.44 15.59 12.31C15.27 12.26 15.04 11.96 15.09 11.63C15.14 11.31 15.44 11.09 15.77 11.13ZM3.8 11.63C3.85 11.96 3.63 12.26 3.3 12.31C2.43 12.44 1.99 12.68 1.99 13.03C1.99 13.14 1.99 13.37 2.52 13.57C2.83 13.69 2.99 14.04 2.87 14.34C2.78 14.58 2.55 14.73 2.31 14.73C2.24 14.73 2.17 14.71 2.1 14.69C0.96 14.25 0.79 13.46 0.79 13.03C0.79 12.33 1.2 11.42 3.12 11.13C3.45 11.09 3.75 11.31 3.8 11.63ZM9.45 3.17C11.45 3.17 13.08 4.8 13.08 6.81C13.08 8.81 11.45 10.44 9.45 10.44L9.42 10.44C8.46 10.44 7.55 10.06 6.87 9.37C6.18 8.68 5.81 7.77 5.82 6.81C5.82 4.8 7.44 3.17 9.45 3.17ZM9.45 4.37C8.1 4.37 7.01 5.46 7.01 6.81C7 7.46 7.25 8.07 7.71 8.53C8.17 8.99 8.78 9.25 9.43 9.25L9.45 9.84L9.45 9.25C10.79 9.25 11.89 8.15 11.89 6.81C11.89 5.46 10.79 4.37 9.45 4.37ZM14.37 3.95C15.76 4.18 16.78 5.38 16.78 6.8C16.78 8.22 15.71 9.45 14.3 9.65C14.27 9.65 14.24 9.65 14.22 9.65C13.92 9.65 13.67 9.44 13.63 9.14C13.58 8.81 13.81 8.51 14.14 8.46C14.96 8.35 15.58 7.63 15.59 6.79C15.59 5.97 14.99 5.26 14.17 5.13C13.85 5.08 13.63 4.77 13.68 4.44C13.74 4.12 14.04 3.9 14.37 3.95ZM5.21 4.44C5.26 4.77 5.04 5.08 4.72 5.13C3.9 5.26 3.31 5.97 3.31 6.8C3.31 7.63 3.93 8.35 4.76 8.46C5.08 8.51 5.31 8.81 5.27 9.14C5.22 9.44 4.97 9.65 4.68 9.65C4.65 9.65 4.62 9.65 4.59 9.65C3.18 9.45 2.12 8.22 2.11 6.8C2.11 5.38 3.13 4.18 4.53 3.95C4.86 3.9 5.16 4.12 5.21 4.44Z" fill="#202021" fill-opacity="1.000000" fill-rule="evenodd"/>
	</g>
</svg>
