<svg width="16.000000" height="16.000000" viewBox="0 0 16 16" fill="none" xmlns="http://www.w3.org/2000/svg" xmlns:xlink="http://www.w3.org/1999/xlink">
	<desc>
			Created with Pixso.
	</desc>
	<defs/>
	<path id="Shape" d="M14 5.33L2 5.33L2 7.33C2 7.7 2.29 8 2.66 8L13.33 8C13.7 8 14 7.7 14 7.33L14 5.33ZM4.66 4C4.66 2.89 5.56 2 6.66 2L9.33 2C10.43 2 11.33 2.89 11.33 4L14 4C14.73 4 15.33 4.59 15.33 5.33L15.33 12C15.33 13.47 14.13 14.66 12.66 14.66L3.33 14.66C1.85 14.66 0.66 13.47 0.66 12L0.66 5.33C0.66 4.59 1.26 4 2 4L4.66 4ZM6 4L10 4C10 3.63 9.7 3.33 9.33 3.33L6.66 3.33C6.29 3.33 6 3.63 6 4ZM6 9.33L2.66 9.33C2.43 9.33 2.2 9.29 2 9.21L2 12C2 12.73 2.59 13.33 3.33 13.33L12.66 13.33C13.4 13.33 14 12.73 14 12L14 9.21C13.79 9.29 13.56 9.33 13.33 9.33L10 9.33L10 10.4C10 10.91 9.58 11.33 9.06 11.33L6.93 11.33C6.41 11.33 6 10.91 6 10.4L6 9.33ZM7.33 10L8.66 10L8.66 9.33L7.33 9.33L7.33 10Z" fill="#0062FF" fill-opacity="1.000000" fill-rule="evenodd"/>
</svg>
